<svg xmlns="http://www.w3.org/2000/svg" width="32" height="32" viewBox="0 0 32 32">
    <g fill="none" fill-rule="evenodd">
        <g>
            <g>
                <g>
                    <g transform="translate(-136 -3353) translate(0 3220) translate(136 133)">
                        <circle cx="16" cy="16" r="16" fill="#FFF"/>
                        <path fill="#000" d="M19.805 12.782l1.039 3.196 1.53-.497c.797-.259 1.654.177 1.913.975.259.798-.177 1.654-.975 1.914l-1.53.497.513 1.579c.257.791-.234 1.647-1.04 1.88-.773.221-1.578-.197-1.847-.942l-.513-1.58-3.197 1.04.513 1.578c.257.792-.234 1.648-1.04 1.88-.773.222-1.578-.196-1.848-.941l-.513-1.58-1.58.514c-.791.257-1.647-.234-1.88-1.04-.222-.773.197-1.578.942-1.847l1.58-.514-1.04-3.196-1.578.513c-.792.257-1.648-.234-1.88-1.04-.223-.773.196-1.578.941-1.847l1.58-.514-.498-1.53c-.26-.798.177-1.655.975-1.914.797-.26 1.654.177 1.913.975l.498 1.53 3.195-1.038-.497-1.53c-.26-.798.177-1.655.975-1.914.798-.26 1.654.177 1.913.975l.498 1.53 1.53-.497c.797-.26 1.654.177 1.913.975.26.797-.177 1.654-.975 1.913l-1.53.497zm-2.888.939c-1.041.338-2.152.7-3.196 1.038l1.039 3.197 3.196-1.04-1.039-3.195z"/>
                    </g>
                </g>
            </g>
        </g>
    </g>
</svg>
