<svg xmlns="http://www.w3.org/2000/svg" width="32" height="32" viewBox="0 0 32 32">
    <g fill="none" fill-rule="evenodd">
        <g fill="#FFF">
            <g>
                <g>
                    <path d="M16 32C7.163 32 0 24.837 0 16S7.163 0 16 0s16 7.163 16 16-7.163 16-16 16zm-6.314-9.161c1.285-3.083 2.612-6.379 3.981-9.89.429-.599.857-.813 1.285-.641.6.17.813.642.642 1.412l-2.569 6.55c-.342 1.113-.042 1.841.9 2.183 1.198.257 2.14-.342 2.825-1.798l4.238-8.347c.428-.685.856-.942 1.284-.77.428.17.514.641.257 1.412l-2.825 6.036c-.771 1.798-.771 3.253 0 4.366 1.155 1.67 2.311 1.798 3.21 2.055.9.257 3.982.642 3.982-1.156 0-2.311-3.982-.77-3.982-2.825 0-2.44 2.569-6.935 3.211-9.118.642-2.184.642-3.596-.642-4.495-1.067-.747-2.361-.669-3.21-.386-.771.257-.789.514-1.285.514-.9 0-1.028-1.541-2.697-1.541-1.67 0-2.826 1.926-3.596 1.926s-1.927-1.54-3.853-1.284C8.916 7.3 8.145 8.198 7.375 9.74c-.771 1.541-1.807 5.55-3.596 10.916-.386 1.156.128 2.826 1.798 3.596 1.67.771 3.467.257 4.11-1.412z" transform="translate(-240 -3353) translate(0 3220) translate(240 133)"/>
                </g>
            </g>
        </g>
    </g>
</svg>
