<svg xmlns="http://www.w3.org/2000/svg" width="32" height="32" viewBox="0 0 32 32">
    <g fill="none" fill-rule="evenodd">
        <g fill="#FFF">
            <g>
                <g>
                    <g>
                        <path d="M16 32C7.163 32 0 24.837 0 16S7.163 0 16 0s16 7.163 16 16-7.163 16-16 16zm7.329-22.12c-.452.29-1.489.71-2 .71-.584-.61-1.406-.99-2.317-.99-1.771 0-3.207 1.436-3.207 3.206 0 .246.029.486.081.716-2.402-.063-5.03-1.267-6.61-3.328-.973 1.683-.131 3.555.972 4.237-.378.028-1.073-.044-1.4-.363-.022 1.117.515 2.597 2.473 3.134-.377.203-1.045.145-1.335.102.102.942 1.422 2.175 2.866 2.175-.514.596-2.45 1.675-4.623 1.332 1.475.898 3.195 1.418 5.016 1.418 5.173 0 9.19-4.193 8.974-9.365l-.001-.018.001-.04-.002-.047c.471-.322 1.103-.892 1.554-1.642-.261.145-1.047.433-1.778.505.47-.253 1.164-1.082 1.336-1.742z" transform="translate(-84 -3353) translate(0 3220) translate(84 133)"/>
                    </g>
                </g>
            </g>
        </g>
    </g>
</svg>
