<svg xmlns="http://www.w3.org/2000/svg" width="70" height="63" viewBox="0 0 70 63">
    <g fill="none" fill-rule="evenodd">
        <g fill="#FFF">
            <g>
                <g>
                    <path d="M36.418 48.403c-.836.834-1.505 1.241-2.043 1.241-.539 0-1.208-.407-2.044-1.241-.534-.537-1.396-.537-1.929 0-.536.535-.536 1.401 0 1.933 1.353 1.36 2.662 2.037 3.973 2.037 1.31 0 2.618-.677 3.972-2.035.536-.534.536-1.4 0-1.935-.534-.535-1.396-.535-1.93 0"/>
                    <path d="M59.9 45.599c-.486 1.818-1.098 3.347-1.84 4.578-.74 1.233-1.778 2.273-3.116 3.123-1.337.849-2.632 1.504-3.884 1.97-1.25.467-2.867.828-4.85 1.089-1.98.258-3.755.418-5.324.473-1.565.054-3.541.08-5.923.08-2.38 0-4.351-.026-5.906-.08-1.556-.055-3.323-.215-5.305-.473-1.98-.26-3.597-.622-4.847-1.088-1.255-.467-2.544-1.122-3.883-1.97-1.337-.851-2.377-1.891-3.12-3.124-.737-1.23-1.355-2.76-1.84-4.578-.485-1.822-.728-3.897-.728-6.224 0-3.97 1.46-7.572 4.375-10.802.875-.985 1.89-1.732 3.044-2.238 1.154-.509 2.467-.795 3.938-.862 1.47-.069 2.873-.056 4.209.038 1.337.097 2.99.227 4.959.392 1.97.164 3.671.245 5.104.245 1.435 0 3.136-.081 5.103-.245 1.97-.165 3.625-.295 4.961-.392 1.336-.094 2.739-.107 4.209-.038 1.473.067 2.79.353 3.955.862 1.169.506 2.188 1.253 3.064 2.238 2.918 3.23 4.375 6.832 4.375 10.802 0 2.327-.244 4.402-.73 6.224m4.978-31.851c.157-.761.31-1.837.456-3.223.147-1.387.09-2.991-.166-4.81-.255-1.817-.735-3.671-1.44-5.564l-.547-.109c-.363-.075-.96-.05-1.787.073-.825.122-1.79.344-2.896.663-1.107.32-2.533.953-4.285 1.899-1.75.943-3.596 2.142-5.541 3.59C45.364 5.26 40.809 4.208 35 4.208c-5.808 0-10.378 1.053-13.71 2.06-1.942-1.448-3.795-2.641-5.56-3.573C13.97 1.762 12.56 1.122 11.5.778 10.445.435 9.468.213 8.566.115 7.67.016 7.092-.014 6.836.023c-.257.036-.444.078-.564.128-.705 1.893-1.193 3.747-1.46 5.565-.266 1.818-.328 3.414-.18 4.79.146 1.374.303 2.456.473 3.242.17.787.364 1.46.583 2.025C1.897 20.171 0 25.44 0 31.58c0 3.414.29 6.51.875 9.285.582 2.777 1.402 5.183 2.46 7.221 1.057 2.04 2.394 3.826 4.01 5.362 1.62 1.534 3.374 2.8 5.27 3.796 1.894.995 4.064 1.798 6.508 2.414 2.442.612 4.927 1.042 7.454 1.289 2.53.245 5.313.368 8.35.368s5.828-.123 8.366-.368c2.541-.247 5.033-.677 7.474-1.29 2.442-.615 4.618-1.418 6.526-2.413 1.91-.996 3.677-2.262 5.307-3.794 1.627-1.535 2.97-3.325 4.027-5.364 1.056-2.038 1.883-4.444 2.48-7.219.593-2.777.893-5.873.893-9.287 0-6.116-1.897-11.384-5.688-15.806.219-.588.407-1.265.566-2.025"/>
                    <path d="M20.375 32C17.96 32 16 34.941 16 38.57c0 3.628 1.96 6.569 4.375 6.569s4.375-2.941 4.375-6.57c0-3.628-1.96-6.569-4.375-6.569M46.375 32C43.96 32 42 34.941 42 38.57c0 3.628 1.96 6.569 4.375 6.569s4.375-2.941 4.375-6.57c0-3.628-1.96-6.569-4.375-6.569"/>
                </g>
            </g>
        </g>
    </g>
</svg>
