<svg xmlns="http://www.w3.org/2000/svg" width="32" height="32" viewBox="0 0 32 32">
    <g fill="none" fill-rule="evenodd">
        <g fill="#FFF">
            <g>
                <g>
                    <g>
                        <path d="M16 32C7.163 32 0 24.837 0 16S7.163 0 16 0s16 7.163 16 16-7.163 16-16 16zm-.11-10.57c-.208 0-.467-.157-.79-.48-.207-.207-.54-.207-.747 0-.207.208-.207.543 0 .749.524.526 1.03.788 1.537.788.507 0 1.013-.262 1.537-.787.207-.207.207-.542 0-.75-.206-.206-.54-.206-.746 0-.324.323-.583.48-.79.48zm7.562-.945c-.14.528-.318.971-.533 1.328-.215.358-.516.66-.904.906-.388.247-.764.437-1.127.572-.363.135-.832.24-1.407.316-.574.075-1.09.121-1.545.137-.454.016-1.027.024-1.718.024-.69 0-1.263-.008-1.714-.024-.451-.016-.964-.062-1.539-.137-.574-.076-1.043-.18-1.406-.316-.364-.135-.738-.325-1.126-.572-.388-.246-.69-.548-.906-.906-.213-.357-.393-.8-.533-1.328-.141-.529-.212-1.13-.212-1.806 0-1.151.424-2.196 1.27-3.133.254-.286.548-.503.883-.65.334-.147.715-.23 1.142-.25.427-.02.834-.016 1.221.011.388.028.868.066 1.439.114.572.048 1.065.071 1.48.071.417 0 .91-.023 1.481-.07.572-.049 1.052-.087 1.44-.115.387-.027.794-.03 1.22-.01.428.019.81.102 1.148.25.34.146.635.363.89.649.846.937 1.268 1.982 1.268 3.133 0 .676-.07 1.277-.212 1.806zm1.445-9.24c.045-.221.09-.533.132-.936.043-.402.026-.867-.048-1.395-.074-.527-.213-1.065-.418-1.614l-.158-.032c-.106-.022-.28-.014-.519.021-.24.036-.52.1-.84.193-.321.092-.735.276-1.243.55-.508.274-1.044.622-1.608 1.042-.96-.292-2.281-.598-3.966-.598-1.686 0-3.011.306-3.978.598-.563-.42-1.1-.766-1.613-1.036-.51-.27-.92-.457-1.227-.556-.306-.1-.59-.164-.852-.193-.26-.028-.427-.037-.501-.026-.075.01-.13.022-.164.037-.204.549-.346 1.087-.423 1.614-.078.528-.096.99-.053 1.39.043.399.088.712.138.94.048.229.105.424.169.588-1.1 1.276-1.65 2.804-1.65 4.586 0 .99.084 1.888.253 2.693.169.806.407 1.504.714 2.095.307.592.694 1.11 1.163 1.556.47.445.979.812 1.53 1.101.549.289 1.178.522 1.887.7.709.178 1.43.303 2.163.375.734.07 1.541.106 2.423.106.88 0 1.69-.035 2.426-.106.738-.072 1.46-.197 2.169-.374.708-.18 1.34-.412 1.893-.7.554-.29 1.067-.657 1.54-1.101.472-.446.862-.965 1.168-1.557.307-.59.546-1.289.72-2.094.172-.806.259-1.704.259-2.694 0-1.775-.55-3.303-1.65-4.586.063-.17.118-.367.164-.588zM11.986 16.54c-.701 0-1.27.853-1.27 1.906 0 1.052.569 1.906 1.27 1.906.7 0 1.269-.854 1.269-1.906 0-1.053-.569-1.906-1.27-1.906zm7.543 0c-.701 0-1.27.853-1.27 1.906 0 1.052.569 1.906 1.27 1.906.7 0 1.269-.854 1.269-1.906 0-1.053-.569-1.906-1.27-1.906z" transform="translate(-188 -3353) translate(0 3220) translate(188 133)"/>
                    </g>
                </g>
            </g>
        </g>
    </g>
</svg>
